<?xml version="1.0" standalone="no"?>
<!DOCTYPE svg PUBLIC "-//W3C//DTD SVG 20010904//EN"
 "http://www.w3.org/TR/2001/REC-SVG-20010904/DTD/svg10.dtd">
<svg version="1.0" xmlns="http://www.w3.org/2000/svg"
 width="196.000000pt" height="196.000000pt" viewBox="0 0 196.000000 196.000000"
 preserveAspectRatio="xMidYMid meet">
<metadata>
Created by potrace 1.14, written by Peter Selinger 2001-2017
</metadata>
<g transform="translate(0.000000,196.000000) scale(0.100000,-0.100000)"
fill="#000000" stroke="none">
<path d="M926 1818 c-5 -25 -63 -627 -77 -798 -5 -58 -11 -120 -14 -137 l-6
-33 -414 0 -415 0 0 -425 0 -425 980 0 980 0 0 425 0 425 -394 0 -395 0 -5 43
c-3 23 -10 92 -16 152 -6 61 -15 144 -20 185 -5 41 -14 131 -20 200 -10 122
-26 283 -36 368 l-5 42 -69 0 c-64 0 -70 -2 -74 -22z m99 -585 c12 -125 25
-263 29 -305 l7 -78 -65 0 -65 0 -6 -34 c-13 -66 -8 -71 74 -74 l73 -3 -4 53
-3 53 51 3 52 3 6 -73 c4 -40 11 -104 16 -143 20 -161 43 -423 38 -436 -4 -10
-19 -13 -55 -11 l-49 4 -18 206 c-9 114 -20 217 -23 230 -5 21 -10 22 -88 22
l-83 0 -6 -42 c-6 -42 -20 -186 -33 -340 l-6 -78 -48 0 c-27 0 -49 4 -49 8 0
10 36 391 50 532 5 52 10 101 10 108 0 8 16 12 48 12 l48 0 12 103 c7 56 19
176 27 267 19 209 25 253 32 246 3 -3 16 -108 28 -233z"/>
</g>
</svg>
