<svg version="1.0" xmlns="http://www.w3.org/2000/svg" width="261.333" height="261.333" viewBox="0 0 196 196"><path d="M92.6 14.2c-.5 2.5-6.3 62.7-7.7 79.8-.5 5.8-1.1 12-1.4 13.7l-.6 3.3H0v85h196v-85h-78.9l-.5-4.3c-.3-2.3-1-9.2-1.6-15.2-.6-6.1-1.5-14.4-2-18.5s-1.4-13.1-2-20c-1-12.2-2.6-28.3-3.6-36.8l-.5-4.2H100c-6.4 0-7 .2-7.4 2.2zm9.9 58.5c1.2 12.5 2.5 26.3 2.9 30.5l.7 7.8h-13l-.6 3.4c-1.3 6.6-.8 7.1 7.4 7.4l7.3.3-.4-5.3-.3-5.3 5.1-.3 5.2-.3.6 7.3c.4 4 1.1 10.4 1.6 14.3 2 16.1 4.3 42.3 3.8 43.6-.4 1-1.9 1.3-5.5 1.1l-4.9-.4-1.8-20.6c-.9-11.4-2-21.7-2.3-23-.5-2.1-1-2.2-8.8-2.2h-8.3l-.6 4.2c-.6 4.2-2 18.6-3.3 34l-.6 7.8h-4.8c-2.7 0-4.9-.4-4.9-.8 0-1 3.6-39.1 5-53.2.5-5.2 1-10.1 1-10.8 0-.8 1.6-1.2 4.8-1.2h4.8l1.2-10.3c.7-5.6 1.9-17.6 2.7-26.7 1.9-20.9 2.5-25.3 3.2-24.6.3.3 1.6 10.8 2.8 23.3z"/></svg>